<svg width="25" height="21" viewBox="0 0 25 21" fill="none" xmlns="http://www.w3.org/2000/svg">
<path d="M23.8375 8.3996L21.2374 5.7995C19.4238 3.98592 17.5552 4.53515 16.0168 6.07353C14.461 7.63036 13.9292 9.48056 15.7427 11.2931L18.3428 13.8941C20.1564 15.7066 22.0066 15.1759 23.5624 13.619C25.1008 12.0808 25.651 10.2132 23.8375 8.3996ZM21.9699 12.0257C21.4013 12.5942 20.7972 12.6482 20.193 12.044L17.592 9.44393C16.9878 8.83973 17.0428 8.23456 17.6103 7.66708C18.1789 7.0996 18.8013 7.02626 19.4055 7.63036L22.0066 10.2314C22.6108 10.8357 22.5374 11.4582 21.9699 12.0257ZM17.3912 20.4506L10.6332 0.799011C10.5782 0.634948 10.4681 0.48827 10.3581 0.378211C9.77221 -0.207629 8.81958 -0.0252086 8.30708 0.488268C7.977 0.81737 7.83129 1.25751 7.99526 1.71493L14.6361 20.9549C15.5857 20.9324 16.523 20.857 17.444 20.7308C17.4411 20.633 17.4238 20.5392 17.3912 20.4506ZM9.53384 10.9091L6.93373 8.308C5.12016 6.4955 3.25268 7.04462 1.7142 8.5831C0.15736 10.1399 -0.373402 11.9892 1.4391 13.8026L4.04018 16.4027C5.85268 18.2163 7.70297 17.6854 9.25972 16.1287C10.7982 14.5901 11.3474 12.7216 9.53384 10.9091ZM7.66626 14.5351C7.09877 15.1026 6.4936 15.1577 5.8894 14.5535L3.2893 11.9524C2.68412 11.3482 2.7391 10.744 3.30766 10.1766C3.87514 9.60907 4.4977 9.53573 5.1019 10.1398L7.70297 12.7399C8.30717 13.3441 8.23374 13.9677 7.66626 14.5351Z" fill="#FFD15C"/>
</svg>
